HIERARCHY
ROOT hip
{
  OFFSET 0 0 0
  CHANNELS 6 Xposition Yposition Zposition Zrotation Yrotation Xrotation
  JOINT abdomen
  {
    OFFSET 0 20.6881 -0.73152
    CHANNELS 3 Zrotation Xrotation Yrotation
    JOINT chest
    {
      OFFSET 0 11.7043 -0.48768
      CHANNELS 3 Zrotation Xrotation Yrotation
      JOINT neck
      {
        OFFSET 0 22.1894 -2.19456
        CHANNELS 3 Zrotation Xrotation Yrotation
        JOINT head
        {
          OFFSET -0.24384 7.07133 1.2192
          CHANNELS 3 Zrotation Xrotation Yrotation
          JOINT leftEye
          {
            OFFSET 4.14528 8.04674 8.04672
            CHANNELS 3 Zrotation Xrotation Yrotation
            End Site
            {
              OFFSET 1 0 0
            }
          }
          JOINT rightEye
          {
            OFFSET -3.6576 8.04674 8.04672
            CHANNELS 3 Zrotation Xrotation Yrotation
            End Site
            {
              OFFSET 1 0 0
            }
          }
        }
      }
      JOINT rCollar
      {
        OFFSET -2.68224 19.2634 -4.8768
        CHANNELS 3 Zrotation Xrotation Yrotation
        JOINT rShldr
        {
          OFFSET -8.77824 -1.95073 1.46304
          CHANNELS 3 Zrotation Xrotation Yrotation
          JOINT rForeArm
          {
            OFFSET -28.1742 -1.7115 0.48768
            CHANNELS 3 Zrotation Xrotation Yrotation
            JOINT rHand
            {
              OFFSET -22.5879 0.773209 7.07136
              CHANNELS 3 Zrotation Xrotation Yrotation
              JOINT rThumb1
              {
                OFFSET -1.2192 -0.487915 3.41376
                CHANNELS 3 Zrotation Xrotation Yrotation
                JOINT rThumb2
                {
                  OFFSET -3.37035 -0.52449 3.41376
                  CHANNELS 3 Zrotation Xrotation Yrotation
                  End Site
                  {
                    OFFSET -1.78271 -1.18214 1.43049
                  }
                }
              }
              JOINT rIndex1
              {
                OFFSET -7.75947 0.938293 5.60832
                CHANNELS 3 Zrotation Xrotation Yrotation
                JOINT rIndex2
                {
                  OFFSET -2.54057 -0.884171 1.56538
                  CHANNELS 3 Zrotation Xrotation Yrotation
                  End Site
                  {
                    OFFSET -1.62519 -0.234802 1.16502
                  }
                }
              }
              JOINT rMid1
              {
                OFFSET -8.24714 1.18213 3.41376
                CHANNELS 3 Zrotation Xrotation Yrotation
                JOINT rMid2
                {
                  OFFSET -3.10165 -0.590103 1.0647
                  CHANNELS 3 Zrotation Xrotation Yrotation
                  End Site
                  {
                    OFFSET -2.48547 -0.328903 0.83742
                  }
                }
              }
              JOINT rRing1
              {
                OFFSET -8.82822 0.546677 1.51678
                CHANNELS 3 Zrotation Xrotation Yrotation
                JOINT rRing2
                {
                  OFFSET -2.60934 -0.819778 -0.0198488
                  CHANNELS 3 Zrotation Xrotation Yrotation
                  End Site
                  {
                    OFFSET -2.33842 -0.294052 0.168128
                  }
                }
              }
              JOINT rPinky1
              {
                OFFSET -8.27202 -0.0477905 -0.4584
                CHANNELS 3 Zrotation Xrotation Yrotation
                JOINT rPinky2
                {
                  OFFSET -1.82734 -0.647385 -0.700984
                  CHANNELS 3 Zrotation Xrotation Yrotation
                  End Site
                  {
                    OFFSET -1.69225 -0.51767 -0.607171
                  }
                }
              }
            }
          }
        }
      }
      JOINT lCollar
      {
        OFFSET 2.68224 19.2634 -4.8768
        CHANNELS 3 Zrotation Xrotation Yrotation
        JOINT lShldr
        {
          OFFSET 8.77824 -1.95073 1.46304
          CHANNELS 3 Zrotation Xrotation Yrotation
          JOINT lForeArm
          {
            OFFSET 28.1742 -1.7115 0.48768
            CHANNELS 3 Zrotation Xrotation Yrotation
            JOINT lHand
            {
              OFFSET 22.5879 0.773209 7.07136
              CHANNELS 3 Zrotation Xrotation Yrotation
              JOINT lThumb1
              {
                OFFSET 1.2192 -0.487915 3.41376
                CHANNELS 3 Zrotation Xrotation Yrotation
                JOINT lThumb2
                {
                  OFFSET 3.37035 -0.52449 3.41376
                  CHANNELS 3 Zrotation Xrotation Yrotation
                  End Site
                  {
                    OFFSET 1.78271 -1.18214 1.43049
                  }
                }
              }
              JOINT lIndex1
              {
                OFFSET 7.75947 0.938293 5.60832
                CHANNELS 3 Zrotation Xrotation Yrotation
                JOINT lIndex2
                {
                  OFFSET 2.54057 -0.884171 1.56538
                  CHANNELS 3 Zrotation Xrotation Yrotation
                  End Site
                  {
                    OFFSET 1.62519 -0.234802 1.16502
                  }
                }
              }
              JOINT lMid1
              {
                OFFSET 8.24714 1.18213 3.41376
                CHANNELS 3 Zrotation Xrotation Yrotation
                JOINT lMid2
                {
                  OFFSET 3.10165 -0.590103 1.0647
                  CHANNELS 3 Zrotation Xrotation Yrotation
                  End Site
                  {
                    OFFSET 2.48547 -0.328903 0.83742
                  }
                }
              }
              JOINT lRing1
              {
                OFFSET 8.82822 0.546677 1.51678
                CHANNELS 3 Zrotation Xrotation Yrotation
                JOINT lRing2
                {
                  OFFSET 2.60934 -0.819778 -0.0198488
                  CHANNELS 3 Zrotation Xrotation Yrotation
                  End Site
                  {
                    OFFSET 2.33842 -0.294052 0.168128
                  }
                }
              }
              JOINT lPinky1
              {
                OFFSET 8.27202 -0.0477905 -0.4584
                CHANNELS 3 Zrotation Xrotation Yrotation
                JOINT lPinky2
                {
                  OFFSET 1.82734 -0.647385 -0.700984
                  CHANNELS 3 Zrotation Xrotation Yrotation
                  End Site
                  {
                    OFFSET 1.69225 -0.51767 -0.607171
                  }
                }
              }
            }
          }
        }
      }
    }
  }
  JOINT rButtock
  {
    OFFSET -8.77824 4.35084 1.2192
    CHANNELS 3 Zrotation Xrotation Yrotation
    JOINT rThigh
    {
      OFFSET 0 -1.70687 -2.19456
      CHANNELS 3 Zrotation Xrotation Yrotation
      JOINT rShin
      {
        OFFSET 0 -36.8199 0.73152
        CHANNELS 3 Zrotation Xrotation Yrotation
        JOINT rFoot
        {
          OFFSET 0.73152 -45.1104 -5.12064
          CHANNELS 3 Zrotation Xrotation Yrotation
          End Site
          {
            OFFSET -1.1221 -3.69964 12.103
          }
        }
      }
    }
  }
  JOINT lButtock
  {
    OFFSET 8.77824 4.35084 1.2192
    CHANNELS 3 Zrotation Xrotation Yrotation
    JOINT lThigh
    {
      OFFSET 0 -1.70687 -2.19456
      CHANNELS 3 Zrotation Xrotation Yrotation
      JOINT lShin
      {
        OFFSET 0 -36.8199 0.73152
        CHANNELS 3 Zrotation Xrotation Yrotation
        JOINT lFoot
        {
          OFFSET -0.73152 -45.1104 -5.12064
          CHANNELS 3 Zrotation Xrotation Yrotation
          End Site
          {
            OFFSET 1.1221 -3.69964 12.103
          }
        }
      }
    }
  }
}
MOTION
Frames:	6
Frame Time:	0.00833333
53.8466 80.9663 192.798 180.645 -1.8052 -147.342 -1.34316 -12.0744 -2.43222 1.69758 7.18994 -0.852585 -1.10525 14.5475 -2.97362 10.727 -58.3019 3.37404 -0.0 0.0 0.0 -0.0 0.0 0.0 2.5982e-15 -2.22643e-13 5.11374e-14 77.8813 8.41531 -19.3299 -11.5384 -5.13012 20.7199 -0.0540616 6.62054 0.934661 -2.86579e-10 2.512e-11 2.53344e-09 -4.78727e-10 5.77557e-11 4.38282e-09 -2.86556e-10 2.51331e-11 2.53344e-09 7.73091 5.47488 0.417314 -2.86582e-10 2.51239e-11 2.53344e-09 2.90554 0.965183 0.102902 -2.86574e-10 2.51238e-11 2.53344e-09 10.2786 0.731801 0.0259123 -2.86588e-10 2.51248e-11 2.53344e-09 2.22167 -0.733487 -0.20892 2.37155e-15 -2.22637e-13 5.09883e-14 -75.5637 41.0727 19.6895 15.4857 -8.218 -28.5943 0.0289771 -4.85339 0.683751 1.56347e-09 -6.1566e-11 -1.23922e-09 2.70254e-09 -1.0617e-10 -2.14296e-09 1.56345e-09 -6.15732e-11 -1.23922e-09 -7.73091 5.47488 -0.417314 1.56346e-09 -6.15708e-11 -1.23923e-09 -2.90554 0.965183 -0.102902 1.56346e-09 -6.15782e-11 -1.23922e-09 -10.2786 0.731801 -0.0259123 1.56347e-09 -6.15775e-11 -1.23923e-09 -2.22167 -0.733487 0.20892 -2.03217e-16 0.0 -3.88251e-19 7.79233 -49.1479 13.4746 -0.104772 29.408 0.699391 -5.75211 -22.2276 -12.051 2.03217e-16 0.0 3.88251e-19 -4.3295 -50.5877 -16.8896 0.191699 30.8077 -0.530503 2.07301 -14.061 5.17034
53.8507 80.6375 193.007 180.61 -1.8062 -146.881 -1.2343 -11.855 -2.44682 1.6804 7.12139 -0.859928 -1.06034 14.4929 -3.0655 10.5927 -58.8575 3.30025 -0.0 0.0 0.0 -0.0 0.0 0.0 3.32639e-15 -2.18343e-13 3.27521e-14 77.8177 8.40221 -19.7295 -11.5806 -5.15861 20.8012 -0.050888 6.41836 0.905884 -2.10352e-10 -5.0841e-11 2.32789e-09 -3.47668e-10 -7.5125e-11 4.02673e-09 -2.1033e-10 -5.08295e-11 2.32789e-09 7.73091 5.47488 0.417314 -2.10355e-10 -5.08375e-11 2.32789e-09 2.90554 0.965183 0.102902 -2.10347e-10 -5.08375e-11 2.32789e-09 10.2786 0.731801 0.0259123 -2.10361e-10 -5.08364e-11 2.32789e-09 2.22167 -0.733487 -0.20892 3.10867e-15 -2.18339e-13 3.2565e-14 -76.0845 41.3685 20.5345 15.6622 -8.37667 -28.9636 0.0324461 -5.13177 0.72318 1.37962e-09 -2.84727e-11 -1.2169e-09 2.3846e-09 -4.88719e-11 -2.10473e-09 1.3796e-09 -2.84771e-11 -1.2169e-09 -7.73091 5.47488 -0.417314 1.37961e-09 -2.84742e-11 -1.21691e-09 -2.90554 0.965183 -0.102902 1.37961e-09 -2.84825e-11 -1.2169e-09 -10.2786 0.731801 -0.0259123 1.37962e-09 -2.84816e-11 -1.21691e-09 -2.22167 -0.733487 0.20892 -2.03217e-16 0.0 -3.88251e-19 8.10016 -50.7177 13.5021 -0.122062 30.8493 0.739296 -5.87002 -22.6122 -12.1193 2.03217e-16 0.0 3.88251e-19 -4.65284 -52.263 -16.9752 0.21199 32.4544 -0.565192 2.06663 -14.5207 5.02716
53.8591 80.2805 193.195 180.63 -1.761 -146.48 -1.10974 -11.615 -2.43867 1.62619 7.09798 -0.858629 -0.973232 14.4733 -3.1959 10.4472 -59.4847 3.15031 -0.0 0.0 0.0 -0.0 0.0 0.0 1.42578e-14 -1.19869e-13 -1.69588e-15 77.7597 8.30988 -20.0461 -11.6056 -5.17569 20.8493 -0.048204 6.24715 0.881524 -7.13801e-12 -7.82872e-11 1.14137e-09 -3.65522e-12 -1.2944e-10 1.97392e-09 -7.12101e-12 -7.82789e-11 1.14136e-09 7.73091 5.47488 0.417314 -7.14126e-12 -7.82841e-11 1.14137e-09 2.90554 0.965183 0.102902 -7.13339e-12 -7.82837e-11 1.14137e-09 10.2786 0.731801 0.0259123 -7.14573e-12 -7.82824e-11 1.14137e-09 2.22167 -0.733487 -0.20892 1.40886e-14 -1.19866e-13 -1.94436e-15 -76.5394 41.6556 21.2944 15.8285 -8.52835 -29.3127 0.0358947 -5.39725 0.76081 5.12519e-10 4.0496e-11 -6.74948e-10 8.86005e-10 7.0262e-11 -1.16787e-09 5.12504e-10 4.04964e-11 -6.74944e-10 -7.73091 5.47488 -0.417314 5.1251e-10 4.04996e-11 -6.74955e-10 -2.90554 0.965183 -0.102902 5.1251e-10 4.04908e-11 -6.74946e-10 -10.2786 0.731801 -0.0259123 5.12525e-10 4.04922e-11 -6.74954e-10 -2.22167 -0.733487 0.20892 -2.03217e-16 0.0 -3.88251e-19 8.38241 -52.3593 13.4061 -0.142147 32.3963 0.783795 -6.00645 -23.0057 -12.219 2.03217e-16 0.0 3.88251e-19 -4.97361 -53.9805 -17.0312 0.235539 34.19 -0.603448 2.06601 -14.9716 4.91041
53.8763 79.8137 193.468 180.662 -1.6721 -145.644 -1.02071 -11.3517 -2.40956 1.5662 7.06334 -0.849622 -0.856478 14.4773 -3.34738 10.2893 -60.1406 2.94925 -0.0 0.0 0.0 -0.0 0.0 0.0 2.71682e-14 1.96304e-15 -3.68738e-14 77.7145 8.1703 -20.3332 -11.6194 -5.18527 20.8758 -0.0464418 6.13506 0.865577 2.1825e-10 -7.87697e-11 -3.06688e-10 3.7687e-10 -1.38476e-10 -5.3119e-10 2.18261e-10 -7.87648e-11 -3.06696e-10 7.73091 5.47488 0.417314 2.18247e-10 -7.8767e-11 -3.0669e-10 2.90554 0.965183 0.102902 2.18254e-10 -7.87662e-11 -3.06689e-10 10.2786 0.731801 0.0259123 2.18244e-10 -7.87648e-11 -3.0668e-10 2.22167 -0.733487 -0.20892 2.7056e-14 1.9629e-15 -3.71836e-14 -76.9811 41.9247 22.0405 15.992 -8.67946 -29.6565 0.0394014 -5.65574 0.797481 -5.42274e-10 1.22152e-10 1.16981e-11 -9.37005e-10 2.11351e-10 1.91183e-11 -5.42287e-10 1.22157e-10 1.17008e-11 -7.73091 5.47488 -0.417314 -5.42281e-10 1.22161e-10 1.16913e-11 -2.90554 0.965183 -0.102902 -5.42281e-10 1.22152e-10 1.16992e-11 -10.2786 0.731801 -0.0259123 -5.42268e-10 1.22154e-10 1.16902e-11 -2.22167 -0.733487 0.20892 -2.03217e-16 0.0 -3.88251e-19 8.63984 -54.0319 13.2758 -0.164935 34.0069 0.831005 -6.13789 -23.4113 -12.3002 2.03217e-16 0.0 3.88251e-19 -5.31228 -55.7039 -17.0657 0.262031 35.9541 -0.643987 2.05823 -15.4254 4.77916
53.8956 79.3584 193.684 180.642 -1.6541 -145.03 -1.01847 -11.0627 -2.3613 1.53173 6.96111 -0.833847 -0.722678 14.4939 -3.5025 10.121 -60.7826 2.72456 -0.0 0.0 0.0 -0.0 0.0 0.0 3.38334e-14 7.63347e-14 -5.74488e-14 77.6899 8.01509 -20.6443 -11.6281 -5.19124 20.8924 -0.0460098 6.11022 0.862038 3.60999e-10 -7.38398e-11 -1.29683e-09 6.17466e-10 -1.35517e-10 -2.24415e-09 3.61006e-10 -7.3837e-11 -1.29684e-09 7.73091 5.47488 0.417314 3.60996e-10 -7.3837e-11 -1.29683e-09 2.90554 0.965183 0.102902 3.61003e-10 -7.3836e-11 -1.29683e-09 10.2786 0.731801 0.0259123 3.60994e-10 -7.38346e-11 -1.29682e-09 2.22167 -0.733487 -0.20892 3.37556e-14 7.63323e-14 -5.77966e-14 -77.464 42.1638 22.8444 16.1594 -8.83614 -30.0098 0.043077 -5.91318 0.834036 -1.28921e-09 1.93308e-10 4.68098e-10 -2.22817e-09 3.34515e-10 8.07725e-10 -1.28922e-09 1.93316e-10 4.68101e-10 -7.73091 5.47488 -0.417314 -1.28921e-09 1.9332e-10 4.68092e-10 -2.90554 0.965183 -0.102902 -1.28921e-09 1.93311e-10 4.68099e-10 -10.2786 0.731801 -0.0259123 -1.2892e-09 1.93314e-10 4.68089e-10 -2.22167 -0.733487 0.20892 -2.03217e-16 0.0 -3.88251e-19 8.89116 -55.6936 13.2134 -0.18993 35.6388 0.878791 -6.23928 -23.8326 -12.312 2.03217e-16 0.0 3.88251e-19 -5.69058 -57.3967 -17.0864 0.290746 37.6863 -0.685237 2.02888 -15.8939 4.59213
53.8915 78.8772 193.893 180.486 -1.5075 -144.521 -1.16377 -10.7076 -2.28829 1.53086 6.7358 -0.808102 -0.555268 14.5137 -3.6663 9.92439 -61.3775 2.44335 -0.0 0.0 0.0 -0.0 0.0 0.0 3.05255e-14 8.33924e-14 -5.6713e-14 77.7148 7.86059 -21.0295 -11.6406 -5.1997 20.9168 -0.0471139 6.17647 0.871472 4.2821e-10 -3.55161e-11 -1.7346e-09 7.31067e-10 -7.19493e-11 -3.00185e-09 4.28215e-10 -3.55135e-11 -1.73461e-09 7.73091 5.47488 0.417314 4.28206e-10 -3.55124e-11 -1.73461e-09 2.90554 0.965183 0.102902 4.28214e-10 -3.55117e-11 -1.7346e-09 10.2786 0.731801 0.0259123 4.28206e-10 -3.55106e-11 -1.73459e-09 2.22167 -0.733487 -0.20892 3.04444e-14 8.33883e-14 -5.70694e-14 -78.029 42.3934 23.7983 16.35 -9.01743 -30.4128 0.0472344 -6.19487 0.874065 -1.71464e-09 2.79874e-10 6.21866e-10 -2.96424e-09 4.84874e-10 1.07221e-09 -1.71465e-09 2.79882e-10 6.21872e-10 -7.73091 5.47488 -0.417314 -1.71464e-09 2.79886e-10 6.2186e-10 -2.90554 0.965183 -0.102902 -1.71464e-09 2.79879e-10 6.21866e-10 -10.2786 0.731801 -0.0259123 -1.71463e-09 2.79883e-10 6.21855e-10 -2.22167 -0.733487 0.20892 -2.03217e-16 0.0 -3.88251e-19 9.10688 -57.3251 13.2326 -0.217259 37.2894 0.926711 -6.29459 -24.2627 -12.2268 2.03217e-16 0.0 3.88251e-19 -6.13247 -59.0244 -17.0788 0.321146 39.3564 -0.726066 1.96125 -16.3991 4.30408
